<?xml version="1.0" encoding="UTF-8"?>
<svg id="Layer_1" data-name="Layer 1" xmlns="http://www.w3.org/2000/svg" viewBox="0 0 400 400">
  <defs>
    <style>
      .cls-1 {
        fill: #a39a87;
      }

      .cls-2 {
        fill: none;
        stroke: #8b8579;
        stroke-miterlimit: 10;
      }
    </style>
  </defs>
  <g>
    <path class="cls-1" d="M112.46,221.9l-1.1,11.6c-.18,1.94-.21,3.37-.08,4.29.13.92.49,1.63,1.08,2.12.59.5,1.59.92,3.01,1.26v.71c-.92,0-1.64-.01-2.16-.04l-3.42-.04-2.99.04c-.39.03-.97.04-1.73.04v-.71c1.13-.34,1.98-.74,2.56-1.2.58-.46,1.02-1.11,1.34-1.95s.58-2.08.79-3.74c.21-1.52.43-3.47.67-5.86.24-2.38.35-4.11.35-5.19,0-1.28-.26-2.29-.79-3.01-.52-.72-1.48-1.36-2.87-1.91v-.71c4.27,0,6.85.05,7.75.16.21.86.46,1.72.75,2.58s.68,1.87,1.18,3.05c1.23,3.12,3.08,7.51,5.54,13.17,1.55-3.62,3.39-8.09,5.54-13.41.5-1.26.87-2.25,1.12-2.97.25-.72.44-1.5.57-2.34.81-.1,3.5-.18,8.06-.24v.71c-1.05.37-1.83.73-2.34,1.1-.51.37-.86.83-1.06,1.38-.2.55-.29,1.28-.29,2.2,0,1.15.1,2.92.29,5.31.2,2.38.41,4.43.65,6.13.21,1.6.45,2.81.73,3.62.27.81.69,1.46,1.26,1.93.56.47,1.41.87,2.54,1.18v.71c-.97,0-1.72-.01-2.24-.04l-3.85-.04-3.42.04c-.55.03-1.36.04-2.44.04v-.71c1.05-.26,1.85-.56,2.4-.88.55-.33.94-.73,1.16-1.22.22-.48.33-1.15.33-1.99,0-1.13-.14-3.17-.43-6.13-.29-2.96-.63-5.98-1.02-9.04-.63,1.52-1.27,3.04-1.93,4.56-1.08,2.6-2.15,5.2-3.22,7.8-1.07,2.61-2.15,5.22-3.22,7.84l-.59.08c-1.94-4.74-4.76-11.51-8.45-20.29Z"/>
    <path class="cls-1" d="M149.99,240.18c.56-.39,1.04-.91,1.44-1.55.39-.64.86-1.61,1.42-2.89.84-2.02,1.79-4.46,2.87-7.31,1.07-2.86,2.18-5.8,3.3-8.85l-.35-.9c.58-.24,1.11-.53,1.59-.88.48-.35.86-.74,1.12-1.16h.55c2.2,6.76,4.31,12.7,6.33,17.81.73,1.76,1.35,3.07,1.85,3.93.5.87,1.04,1.49,1.61,1.89.58.39,1.32.69,2.24.9v.71c-.94,0-1.69-.01-2.24-.04l-3.42-.04-3.38.04c-.58.03-1.38.04-2.4.04v-.71c1.07-.24,1.84-.52,2.3-.87.46-.34.69-.87.69-1.57,0-.45-.12-1.13-.37-2.06-.25-.93-.71-2.35-1.4-4.27-.97-.03-2.42-.04-4.36-.04-1.65,0-2.88.01-3.7.04-.73,1.94-1.22,3.37-1.45,4.29-.24.92-.35,1.57-.35,1.97,0,.71.22,1.25.67,1.61.45.37,1.22.67,2.32.9v.71c-.81,0-1.46-.01-1.93-.04l-2.71-.04-2.71.04c-.42.03-1.01.04-1.77.04v-.71c.94-.26,1.7-.59,2.26-.98ZM159.49,231.02c1.7,0,2.96-.01,3.77-.04-1.15-3.25-2.33-6.38-3.54-9.4-1.49,3.8-2.67,6.93-3.54,9.4.65.03,1.76.04,3.3.04Z"/>
    <path class="cls-1" d="M185.67,240.26c.52-.37.86-.98,1.02-1.83s.24-2.29.24-4.31v-8.73c0-2.02-.08-3.45-.24-4.3s-.5-1.46-1.02-1.83c-.52-.37-1.4-.67-2.63-.9v-.71c.86,0,1.55.01,2.04.04l3.66.04,3.62-.04c.52-.03,1.22-.04,2.08-.04v.71c-1.28.24-2.18.54-2.69.9s-.85.98-1,1.83-.24,2.29-.24,4.3v8.73c0,2.02.08,3.45.24,4.31s.49,1.46,1,1.83,1.41.67,2.69.9v.71c-.87,0-1.56-.01-2.08-.04l-3.62-.04-3.66.04c-.5.03-1.18.04-2.04.04v-.71c1.23-.24,2.11-.54,2.63-.9Z"/>
    <path class="cls-1" d="M208.65,242.09c-1.22-.22-2.27-.5-3.17-.85-.13-1.52-.22-3.58-.27-6.17l.67-.04c.29,1.23.77,2.32,1.44,3.26.67.94,1.45,1.67,2.36,2.18.9.51,1.86.77,2.85.77,1.23,0,2.23-.36,3.01-1.08.77-.72,1.16-1.63,1.16-2.73,0-.84-.22-1.62-.67-2.36-.45-.73-1-1.4-1.65-2-.66-.6-1.53-1.31-2.63-2.12-1.23-.92-2.21-1.72-2.95-2.4-.73-.68-1.36-1.47-1.89-2.36-.52-.89-.79-1.87-.79-2.95,0-1.15.33-2.2.98-3.15.65-.94,1.55-1.68,2.69-2.2,1.14-.52,2.44-.79,3.91-.79.84,0,1.72.08,2.65.24.93.16,1.83.38,2.69.67-.05.87-.12,1.74-.2,2.62s-.17,1.76-.28,2.65l-.67-.04c-.26-1.55-.83-2.77-1.71-3.66s-1.95-1.34-3.21-1.34c-1.1,0-2,.33-2.71.98-.71.66-1.06,1.48-1.06,2.48,0,.71.21,1.4.63,2.06.42.67.94,1.29,1.57,1.85s1.44,1.2,2.44,1.91c1.23.94,2.25,1.78,3.07,2.5.81.72,1.49,1.56,2.02,2.52s.81,2.04.81,3.24c0,1.29-.31,2.43-.94,3.44s-1.53,1.8-2.69,2.36c-1.17.56-2.52.84-4.07.84-1.05,0-2.18-.11-3.4-.33Z"/>
    <path class="cls-1" d="M237.9,240.75c-1.98-1.11-3.55-2.64-4.7-4.58-1.15-1.94-1.73-4.1-1.73-6.49s.55-4.42,1.65-6.35c1.1-1.93,2.61-3.45,4.52-4.56,1.91-1.11,4.06-1.67,6.45-1.67s4.65.56,6.62,1.67c1.98,1.11,3.54,2.64,4.7,4.58,1.15,1.94,1.73,4.1,1.73,6.49s-.55,4.46-1.65,6.37c-1.1,1.91-2.61,3.43-4.52,4.54-1.91,1.11-4.06,1.67-6.45,1.67s-4.65-.56-6.62-1.67ZM249.07,239.97c1.19-.85,2.12-2.08,2.77-3.68.65-1.6.98-3.46.98-5.58,0-2.36-.39-4.48-1.16-6.37-.77-1.89-1.85-3.37-3.22-4.44-1.38-1.07-2.96-1.61-4.74-1.61-1.57,0-2.96.43-4.17,1.28s-2.14,2.08-2.79,3.68c-.66,1.6-.98,3.46-.98,5.58,0,2.33.39,4.45,1.18,6.35.79,1.9,1.88,3.39,3.26,4.46s2.97,1.61,4.76,1.61c1.55,0,2.92-.43,4.11-1.28Z"/>
    <path class="cls-1" d="M281.7,232.56c-3.5-4.01-6.44-7.33-8.83-9.95-.03,1.52-.04,4.17-.04,7.94,0,3.15.1,5.34.29,6.59.2,1.25.62,2.14,1.26,2.67s1.8.99,3.48,1.36v.71c-.89,0-1.59-.01-2.08-.04l-3.62-.04-2.99.04c-.39.03-.93.04-1.61.04v-.71c1.26-.37,2.14-.82,2.65-1.36.51-.54.84-1.43.98-2.67.14-1.24.21-3.44.21-6.59,0-3.64-.08-6.19-.25-7.65-.17-1.46-.55-2.48-1.14-3.09-.59-.6-1.65-1.1-3.17-1.49v-.71l3.22.04c1.68.05,2.94.08,3.78.08,2.12,2.75,4.66,5.85,7.63,9.28,2.96,3.43,5.71,6.55,8.26,9.36.03-1.62.04-4.09.04-7.39s-.09-5.34-.28-6.59c-.18-1.24-.6-2.14-1.24-2.67s-1.81-.99-3.52-1.36v-.71c.89,0,1.61.01,2.16.04l3.54.04,3.07-.04c.39-.03.92-.04,1.57-.04v.71c-1.26.37-2.14.82-2.65,1.36s-.84,1.43-.98,2.67c-.14,1.25-.22,3.44-.22,6.59,0,4.4.06,9.02.2,13.84l-.98.12c-2.33-2.91-5.25-6.37-8.75-10.38Z"/>
  </g>
  <g>
    <path class="cls-1" d="M84.25,261.88c-.34-.59-.8-1.02-1.38-1.28-.58-.26-1.44-.42-2.6-.47-1.1-.05-2.65-.08-4.64-.08-.1,2.18-.16,4.34-.16,6.49v3.77c1.86,0,3.25-.04,4.17-.12,1.07-.08,1.85-.36,2.32-.84.47-.48.84-1.36,1.1-2.61h.75c-.03,2.18,0,4.86.08,8.06l-.71.08c-.26-.84-.52-1.47-.79-1.91-.26-.43-.62-.74-1.06-.92s-1.06-.31-1.85-.39c-.87-.08-2.2-.12-4.01-.12v3.89c0,1.99.09,3.43.27,4.31.18.88.56,1.49,1.12,1.85.56.35,1.55.65,2.97.88v.71c-1.15,0-2.04-.01-2.67-.04l-3.5-.04-3.58.04c-.55.03-1.25.04-2.08.04v-.71c1.23-.24,2.1-.54,2.61-.9s.85-.98,1.02-1.83c.17-.85.26-2.29.26-4.31v-8.73c0-2.02-.09-3.45-.26-4.3-.17-.85-.51-1.46-1.02-1.83s-1.38-.67-2.61-.9v-.71c.84,0,1.53.01,2.08.04l3.58.04,5.66-.04,6.84-.16c-.05,2.04-.14,3.96-.27,5.74h-.67c-.31-1.21-.64-2.1-.98-2.69Z"/>
    <path class="cls-1" d="M102.46,283.09l-3.85.04-2.04.04v-.71c1.23-.24,2.1-.54,2.61-.9s.85-.98,1.02-1.83c.17-.85.26-2.29.26-4.31v-8.73c0-2.02-.09-3.45-.26-4.3-.17-.85-.51-1.46-1.02-1.83s-1.38-.67-2.61-.9v-.71l2.04.04,3.85.04c2.54,0,6.75-.06,12.62-.2-.03,1.31-.07,2.49-.12,3.54-.05.66-.11,1.31-.16,1.97h-.71c-.34-1.15-.68-2.01-1-2.56-.33-.55-.78-.94-1.36-1.18-.58-.24-1.43-.39-2.56-.47-.81-.05-2.48-.08-4.99-.08-.1,2.2-.16,4.36-.16,6.49v3.38c1.81.03,3.2,0,4.17-.08.81-.05,1.44-.18,1.89-.39.45-.21.8-.55,1.06-1.02.26-.47.51-1.18.75-2.12h.67c-.05,1.89-.03,4.59.08,8.1l-.67.12c-.31-1.23-.69-2.06-1.12-2.5-.43-.43-1.13-.7-2.1-.81-.94-.1-2.52-.13-4.72-.08v3.3c0,2.25.08,3.9.26,4.93.17,1.04.49,1.74.96,2.1.47.37,1.23.55,2.28.55.94,0,1.9-.07,2.87-.2.89-.1,1.64-.32,2.24-.65.6-.33,1.17-.84,1.71-1.55.54-.71,1.12-1.72,1.75-3.03l.67.16c-.37,2.33-.83,4.51-1.38,6.53-6.03-.13-10.34-.2-12.94-.2Z"/>
    <path class="cls-1" d="M145.57,282.4c-1.22-.72-2.44-1.9-3.66-3.54-1.22-1.64-2.54-3.89-3.95-6.74-.29-.03-.63-.04-1.02-.04-.97-.03-1.86-.01-2.67.04v3.3c0,1.99.09,3.43.27,4.31.18.88.56,1.49,1.12,1.85.56.35,1.55.65,2.97.88v.71c-1.15,0-2.04-.01-2.67-.04l-3.5-.04-3.58.04c-.55.03-1.25.04-2.08.04v-.71c1.23-.24,2.1-.54,2.61-.9s.85-.98,1.02-1.83c.17-.85.26-2.29.26-4.31v-8.73c0-2.02-.09-3.45-.26-4.3-.17-.85-.51-1.46-1.02-1.83s-1.38-.67-2.61-.9v-.71c1.94,0,4.09-.03,6.45-.08l2.56-.04c3.17,0,5.56.5,7.18,1.49,1.61,1,2.42,2.48,2.42,4.44,0,1.28-.33,2.42-.98,3.42-.66,1-1.68,1.81-3.07,2.44,2.1,4.17,4.08,7.14,5.94,8.93,1.86,1.78,3.84,2.7,5.94,2.75l.08.75c-1.28.29-2.53.43-3.74.43-1.44,0-2.77-.36-3.99-1.08ZM138.39,270.23c1.07-.52,1.87-1.21,2.38-2.06.51-.85.77-1.81.77-2.89,0-1.26-.33-2.31-.98-3.17-.66-.85-1.53-1.46-2.61-1.83-1.09-.37-2.26-.49-3.52-.35-.05,1.05-.08,1.9-.08,2.56-.03,1.34-.05,2.69-.08,4.05v4.6c1.68-.08,3.05-.38,4.13-.9Z"/>
    <path class="cls-1" d="M176.23,273.85c-3.5-4.01-6.44-7.33-8.83-9.95-.03,1.52-.04,4.17-.04,7.94,0,3.15.1,5.34.29,6.59.2,1.25.62,2.14,1.26,2.67.64.54,1.8.99,3.48,1.36v.71c-.89,0-1.59-.01-2.08-.04l-3.62-.04-2.99.04c-.39.03-.93.04-1.61.04v-.71c1.26-.37,2.14-.82,2.65-1.36s.84-1.43.98-2.67c.14-1.24.22-3.44.22-6.59,0-3.64-.09-6.19-.26-7.65-.17-1.46-.55-2.48-1.14-3.09-.59-.6-1.65-1.1-3.17-1.49v-.71l3.22.04c1.68.05,2.94.08,3.77.08,2.12,2.75,4.67,5.85,7.63,9.28,2.96,3.43,5.71,6.55,8.26,9.36.03-1.62.04-4.09.04-7.39s-.09-5.34-.27-6.59c-.18-1.24-.6-2.14-1.24-2.67-.64-.54-1.82-.99-3.52-1.36v-.71c.89,0,1.61.01,2.16.04l3.54.04,3.07-.04c.39-.03.92-.04,1.57-.04v.71c-1.26.37-2.14.82-2.65,1.36-.51.54-.84,1.43-.98,2.67-.14,1.25-.22,3.44-.22,6.59,0,4.4.06,9.02.2,13.84l-.98.12c-2.33-2.91-5.25-6.37-8.75-10.38Z"/>
    <path class="cls-1" d="M200.41,281.48c.56-.39,1.04-.91,1.44-1.55.39-.64.87-1.61,1.41-2.89.84-2.02,1.79-4.46,2.87-7.31,1.07-2.86,2.18-5.8,3.3-8.85l-.35-.9c.58-.24,1.11-.53,1.59-.88.48-.35.86-.74,1.12-1.16h.55c2.2,6.76,4.31,12.7,6.33,17.81.73,1.76,1.35,3.07,1.85,3.93.5.87,1.04,1.49,1.61,1.89.58.39,1.32.69,2.24.9v.71c-.94,0-1.69-.01-2.24-.04l-3.42-.04-3.38.04c-.58.03-1.38.04-2.4.04v-.71c1.08-.24,1.84-.52,2.3-.87.46-.34.69-.87.69-1.57,0-.45-.12-1.13-.37-2.06-.25-.93-.71-2.35-1.4-4.27-.97-.03-2.42-.04-4.36-.04-1.65,0-2.88.01-3.7.04-.73,1.94-1.22,3.37-1.46,4.29-.24.92-.35,1.57-.35,1.97,0,.71.22,1.25.67,1.61s1.22.67,2.32.9v.71c-.81,0-1.46-.01-1.93-.04l-2.71-.04-2.71.04c-.42.03-1.01.04-1.77.04v-.71c.94-.26,1.7-.59,2.26-.98ZM209.91,272.32c1.71,0,2.96-.01,3.78-.04-1.15-3.25-2.33-6.38-3.54-9.4-1.49,3.8-2.67,6.93-3.54,9.4.66.03,1.76.04,3.3.04Z"/>
    <path class="cls-1" d="M247.67,273.85c-3.5-4.01-6.44-7.33-8.83-9.95-.03,1.52-.04,4.17-.04,7.94,0,3.15.1,5.34.29,6.59.2,1.25.62,2.14,1.26,2.67s1.8.99,3.48,1.36v.71c-.89,0-1.59-.01-2.08-.04l-3.62-.04-2.99.04c-.39.03-.93.04-1.61.04v-.71c1.26-.37,2.14-.82,2.65-1.36.51-.54.84-1.43.98-2.67.14-1.24.21-3.44.21-6.59,0-3.64-.08-6.19-.25-7.65-.17-1.46-.55-2.48-1.14-3.09-.59-.6-1.65-1.1-3.17-1.49v-.71l3.22.04c1.68.05,2.94.08,3.78.08,2.12,2.75,4.66,5.85,7.63,9.28,2.96,3.43,5.71,6.55,8.26,9.36.03-1.62.04-4.09.04-7.39s-.09-5.34-.28-6.59c-.18-1.24-.6-2.14-1.24-2.67s-1.81-.99-3.52-1.36v-.71c.89,0,1.61.01,2.16.04l3.54.04,3.07-.04c.39-.03.92-.04,1.57-.04v.71c-1.26.37-2.14.82-2.65,1.36s-.84,1.43-.98,2.67c-.14,1.25-.22,3.44-.22,6.59,0,4.4.06,9.02.2,13.84l-.98.12c-2.33-2.91-5.25-6.37-8.75-10.38Z"/>
    <path class="cls-1" d="M279.38,283.21c-4.43-.08-7.5-.09-9.2-.04v-.71c1.23-.24,2.1-.54,2.62-.9.51-.37.85-.98,1.02-1.83s.26-2.29.26-4.31v-8.73c0-2.02-.09-3.45-.26-4.3s-.51-1.46-1.02-1.83c-.51-.37-1.38-.67-2.62-.9v-.71c2.91-.03,5.57-.04,7.98-.04l1.77-.04c3.36,0,6.25.5,8.69,1.49,2.44,1,4.3,2.44,5.58,4.33,1.28,1.89,1.93,4.15,1.93,6.8,0,2.46-.54,4.58-1.63,6.35-1.09,1.77-2.69,3.11-4.82,4.03-2.12.92-4.69,1.38-7.71,1.38l-2.6-.04ZM278.1,278.98c.3,1.09.82,1.88,1.55,2.38s1.77.75,3.11.75c1.89,0,3.51-.42,4.88-1.26,1.36-.84,2.42-2.03,3.16-3.58.75-1.55,1.12-3.37,1.12-5.46,0-2.44-.5-4.55-1.49-6.35-1-1.79-2.42-3.17-4.27-4.13s-4.03-1.44-6.55-1.44c-.58,0-1.15.03-1.73.08-.16,1.49-.23,4.06-.23,7.71v6.76c0,1.94.15,3.45.45,4.54Z"/>
    <path class="cls-1" d="M308.18,281.48c.56-.39,1.04-.91,1.44-1.55.39-.64.87-1.61,1.42-2.89.84-2.02,1.79-4.46,2.87-7.31,1.08-2.86,2.18-5.8,3.3-8.85l-.35-.9c.58-.24,1.11-.53,1.59-.88.49-.35.86-.74,1.12-1.16h.55c2.2,6.76,4.31,12.7,6.33,17.81.73,1.76,1.35,3.07,1.85,3.93.5.87,1.04,1.49,1.61,1.89.58.39,1.32.69,2.24.9v.71c-.94,0-1.69-.01-2.24-.04l-3.42-.04-3.38.04c-.58.03-1.38.04-2.4.04v-.71c1.07-.24,1.84-.52,2.3-.87.46-.34.69-.87.69-1.57,0-.45-.12-1.13-.37-2.06-.25-.93-.71-2.35-1.4-4.27-.97-.03-2.42-.04-4.36-.04-1.65,0-2.88.01-3.7.04-.73,1.94-1.22,3.37-1.46,4.29-.23.92-.35,1.57-.35,1.97,0,.71.22,1.25.67,1.61.45.37,1.22.67,2.32.9v.71c-.81,0-1.46-.01-1.93-.04l-2.71-.04-2.71.04c-.42.03-1.01.04-1.77.04v-.71c.94-.26,1.7-.59,2.26-.98ZM317.67,272.32c1.7,0,2.96-.01,3.77-.04-1.15-3.25-2.33-6.38-3.54-9.4-1.49,3.8-2.67,6.93-3.54,9.4.65.03,1.76.04,3.3.04Z"/>
  </g>
  <g>
    <rect class="cls-2" x="168.11" y="109.94" width="63.78" height="88.63" rx="31.89" ry="31.89"/>
    <rect class="cls-2" x="171.06" y="114.15" width="57.14" height="80" rx="28.29" ry="28.29"/>
    <path class="cls-1" d="M210.04,149.69c.49,0,1.08,1.23,1.08,1.87,0,.29-3.44.25-5.41,4.23-.1.2-.2.39-.39.39s-.2-.2-.2-.29c0-.15.05-.29.1-.44.74-1.87,2.26-3.35,2.26-3.35-.93.34-1.77.54-2.75.69-4.23,9.89-9.3,20.76-19.97,20.76-4.08,0-7.13-2.41-7.13-2.85,0-.1.1-.3.34-.3.15,0,1.08,1.03,4.18,1.03,9.59,0,14.07-8.95,18.84-18.35-.34.05-.69.1-1.08.1-4.77.44-9.35,3.05-9.35,5.76,0,.15-.1.3-.3.3s-.39-.59-.39-1.28c0-4.53,4.77-5.85,9.94-5.9.59,0,1.18,0,1.72-.05,2.46-4.77,5.46-10.13,8.66-13.43-2.9-.44-6.15-.93-10.63-.93-9.64,0-14.46,3.64-14.46,8.51,0,.15-.2.25-.34.25-.29,0-1.82-1.52-1.82-3.44,0-4.87,5.66-6.74,13.48-6.74,6.44,0,10.53.98,14.56,1.62,2.75-2.51,6.35-4.08,10.13-4.08.84,0,1.23.79,1.23,1.03,0,.1-.05.15-.1.15-.1,0-.59-.2-1.03-.2-3.25,0-6,1.28-8.22,3.39,1.38.15,2.76.25,4.28.25,3.54,0,4.08-1.03,4.23-.98.1,0,.2.25.2.44,0,.25-1.72,1.38-5.21,1.38-1.43,0-2.8-.15-4.23-.34-2.85,3.2-5.07,8.02-7.08,12.84,1.13-.2,2.12-.44,3-.84,0,0,1.33-1.18,1.87-1.18Z"/>
  </g>
</svg>